<svg xmlns="http://www.w3.org/2000/svg" viewBox="0 0 360 180">
  <defs><linearGradient id="p" x2="1" y2="1"><stop stop-color="#ffae50"/><stop offset=".48" stop-color="#f26d24"/><stop offset="1" stop-color="#8d2e17"/></linearGradient><linearGradient id="g" x2="1" y2="1"><stop stop-color="#d9f8ff"/><stop offset="1" stop-color="#26384d"/></linearGradient><radialGradient id="t"><stop offset=".42" stop-color="#414a58"/><stop offset=".48" stop-color="#080a0e"/><stop offset=".75" stop-color="#22252d"/><stop offset="1" stop-color="#090b10"/></radialGradient><filter id="s"><feGaussianBlur stdDeviation="6"/></filter></defs>
  <ellipse cx="180" cy="157" rx="156" ry="11" fill="#03070b" opacity=".5" filter="url(#s)"/>
  <path d="M18 55h82l27-31h83l39 34 65 13 13 42-27 12c-8-29-26-44-51-44-26 0-45 16-52 47H109c-8-31-26-47-52-47-25 0-43 15-51 44L2 109z" fill="url(#p)" stroke="#5c2316" stroke-width="5" stroke-linejoin="round"/>
  <path d="m134 31-20 28h109l-32-28z" fill="url(#g)" stroke="#67291b" stroke-width="5"/><path d="M171 31v28" stroke="#172235" stroke-width="6"/><path d="M20 62h80m149 2 57 13" stroke="#ffd17b" stroke-width="5"/><path d="M40 66h72v35H34z" fill="#c5461b"/><path d="M116 72h104v42H112z" fill="#9f3719" opacity=".45"/><path d="M77 111 122 91m-7 0 40 32m57-31 42 25m-1-29-43 34" stroke="#e8eef4" stroke-width="8" stroke-linecap="round"/><rect x="137" y="113" width="55" height="18" rx="6" fill="#263341"/><path d="M13 84H2v23h19m293-20h19v23h-15" fill="#303b48" stroke="#111923" stroke-width="4"/><path d="M269 77h39" stroke="#fff07e" stroke-width="8" stroke-linecap="round"/>
  <g fill="url(#t)" stroke="#040609" stroke-width="8"><circle cx="66" cy="127" r="47"/><circle cx="259" cy="127" r="47"/></g><g fill="none" stroke="#3d414a" stroke-width="6" stroke-dasharray="9 5"><circle cx="66" cy="127" r="40"/><circle cx="259" cy="127" r="40"/></g><g fill="#17202c" stroke="#ffdc69" stroke-width="4"><circle cx="66" cy="127" r="21"/><circle cx="259" cy="127" r="21"/></g><g fill="#e9eef4"><circle cx="66" cy="127" r="6"/><circle cx="259" cy="127" r="6"/></g>
</svg>
